<svg width="53" height="44" viewBox="0 0 53 44" fill="none" xmlns="http://www.w3.org/2000/svg">
<path d="M31.7598 31.2275C31.7469 33.4869 29.5267 35.3109 26.8026 35.2982C24.0787 35.2854 21.8841 33.4444 21.8994 31.1829L22.0682 4.75634C22.0783 2.49704 24.3012 0.675042 27.0252 0.685716C29.7467 0.698426 31.9413 2.53953 31.9259 4.80099L31.7598 31.2275Z" fill="#CDDFF9"/>
<path d="M38.4919 33.6992C38.456 39.0525 33.2024 43.3694 26.7516 43.3398C20.3032 43.3121 15.1032 38.9484 15.1365 33.5951C15.1697 28.2419 20.4261 23.9227 26.8768 23.9525C33.3226 23.9802 38.5251 28.3438 38.4919 33.6992Z" fill="#CDDFF9"/>
<path d="M29.184 31.0003C29.1738 32.0789 28.1174 32.9496 26.8181 32.9432C25.5187 32.9369 24.47 32.0578 24.4775 30.979L24.6413 5.21293C24.649 4.13637 25.708 3.26572 27.0073 3.26987C28.3067 3.27629 29.3528 4.15548 29.3451 5.23419L29.184 31.0003Z" fill="#578FFF"/>
<path d="M34.9876 33.6822C34.9647 37.4322 31.2866 40.4539 26.7693 40.4327C22.2574 40.4136 18.6152 37.358 18.6406 33.6121C18.6636 29.8621 22.3418 26.8404 26.8563 26.8595C31.3709 26.8807 35.0106 29.9364 34.9876 33.6822Z" fill="#DC4D61"/>
<path d="M34.9876 33.6822C34.9647 37.4322 31.2866 40.4539 26.7693 40.4327C22.2574 40.4136 18.6152 37.358 18.6406 33.6121C18.6636 29.8621 22.3418 26.8404 26.8563 26.8595C31.3709 26.8807 35.0106 29.9364 34.9876 33.6822Z" fill="#DC4D61"/>
<path d="M24.5773 15.1805L24.4775 30.979C24.47 32.0578 25.5187 32.9369 26.8181 32.9432C28.1174 32.9496 29.1738 32.0789 29.184 31.0003L29.2838 15.2017L24.5773 15.1805Z" fill="#DC4D61"/>
<path d="M24.5774 15.1805L24.5006 27.1462C21.1321 27.9701 18.6587 30.5437 18.6406 33.6121C18.6152 37.3197 22.1807 40.3436 26.6288 40.4263L26.6772 32.9369L26.7157 26.8659L26.7899 15.1911L24.5774 15.1805Z" fill="#C43552"/>
<path d="M29.9974 16.2231L28.258 16.2147V15.8813L30.0025 15.8897L29.9974 16.2231Z" fill="white"/>
<path d="M28.2527 17.2034L28.2503 17.5389L29.9896 17.5474L29.992 17.212L28.2527 17.2034Z" fill="white"/>
<path d="M29.9821 18.8711L28.2426 18.8625V18.5292L29.9845 18.5377L29.9821 18.8711Z" fill="white"/>
<path d="M29.9744 20.196L28.2325 20.1876L28.235 19.8542L29.9744 19.8628V20.196Z" fill="white"/>
<path d="M29.9667 21.5212L28.2249 21.5126V21.1793L29.9692 21.1857L29.9667 21.5212Z" fill="white"/>
<path d="M29.9563 22.844L28.2146 22.8377L28.2197 22.5044L29.9589 22.5107L29.9563 22.844Z" fill="white"/>
<path d="M29.9488 24.1691L28.2068 24.1627L28.2094 23.8272L29.9512 23.8358L29.9488 24.1691Z" fill="white"/>
<path d="M29.9411 25.4921L28.1992 25.4835L28.2017 25.1523L29.9411 25.1587V25.4921Z" fill="white"/>
<path d="M29.9308 26.817L28.1916 26.8107V26.4772L29.9335 26.4836L29.9308 26.817Z" fill="white"/>
<path d="M35.613 23.7465C35.4762 23.7465 35.3381 23.7338 35.2012 23.7083C34.4965 23.581 34.0055 23.154 33.8891 22.5659C33.8634 22.4321 33.9722 22.3048 34.1347 22.2834C34.2984 22.2623 34.4479 22.3535 34.4748 22.4853C34.5503 22.8738 34.8622 23.1435 35.3278 23.2285C35.7806 23.3092 36.4099 23.1924 36.7807 22.738C37.0416 22.4109 37.0287 21.8971 36.7474 21.5679C36.4955 21.2706 36.0849 21.1708 35.5517 21.2813C35.407 21.3109 35.2562 21.2472 35.2024 21.1326C35.1489 21.0158 35.2076 20.884 35.3394 20.8269C35.8625 20.5953 36.2884 20.3362 36.5977 20.1112C36.1157 20.0985 35.6233 20.1005 35.145 20.1005C34.8699 20.1028 34.5989 20.1048 34.3303 20.1028C34.1666 20.1005 34.0349 19.9901 34.0362 19.8543C34.0375 19.7184 34.1704 19.61 34.3328 19.61C34.3328 19.61 34.3341 19.61 34.3354 19.61C34.6028 19.61 34.8714 19.61 35.1424 19.61C35.8393 19.6057 36.576 19.6037 37.2857 19.6461C37.3946 19.6525 37.4905 19.7098 37.5352 19.7927C37.5799 19.8755 37.5647 19.9732 37.498 20.0432C37.3012 20.2514 36.956 20.5316 36.4802 20.8162C36.782 20.899 37.0403 21.0561 37.2322 21.2833C37.658 21.7845 37.6746 22.5107 37.273 23.0118C36.897 23.4747 36.2639 23.7465 35.613 23.7465Z" fill="#AAC8F9"/>
<path d="M41.0701 20.3935C40.9959 20.3935 40.9268 20.3851 40.8641 20.366C40.5649 20.281 40.3833 20.0241 40.4229 19.7396C40.4588 19.472 40.6877 19.2723 40.992 19.2448C41.0023 19.2448 41.0688 19.2427 41.0688 19.2427C41.4102 19.2427 41.6891 19.4061 41.7721 19.6482C41.8541 19.9032 41.7287 20.1558 41.4475 20.3087C41.3426 20.3639 41.2071 20.3935 41.0701 20.3935Z" fill="#AAC8F9"/>
<path d="M39.098 21.7611C38.9599 21.7611 38.8345 21.7462 38.7246 21.7122C38.1811 21.5551 37.8512 21.0709 37.9253 20.538C37.9942 20.0367 38.3998 19.6801 38.9586 19.6291C39.634 19.5696 40.2581 19.8839 40.4242 20.3703C40.5815 20.8438 40.3412 21.3173 39.7951 21.6082C39.6122 21.7037 39.3525 21.7611 39.098 21.7611ZM39.1236 20.1155C39.0903 20.1155 39.0559 20.1155 39.0225 20.1196C38.6069 20.1558 38.5278 20.4933 38.5136 20.5953C38.4792 20.8438 38.593 21.1538 38.9227 21.2493C39.0571 21.2897 39.3462 21.2599 39.4766 21.1941C39.5955 21.1283 39.9818 20.8883 39.854 20.5019C39.7618 20.2344 39.4217 20.1155 39.1236 20.1155Z" fill="#AAC8F9"/>
<path d="M39.0494 23.7613C38.8909 23.7613 38.7412 23.7422 38.6158 23.7061C37.9789 23.5192 37.5953 22.9544 37.6823 22.328C37.7642 21.742 38.2374 21.3258 38.887 21.2684C39.6811 21.1942 40.4102 21.5657 40.6008 22.1328C40.7849 22.6869 40.501 23.2432 39.8615 23.5829C39.653 23.6934 39.3501 23.7613 39.0494 23.7613ZM39.0801 21.7525C39.0365 21.7525 38.9931 21.7547 38.9509 21.7569C38.5097 21.7973 38.3102 22.1072 38.2719 22.3855C38.2271 22.7082 38.3766 23.1137 38.8128 23.2411C38.8743 23.2581 38.9573 23.2688 39.0494 23.2688C39.2348 23.2688 39.4281 23.2285 39.5419 23.169C39.9613 22.946 40.1429 22.6083 40.0291 22.2643C39.9114 21.9098 39.4675 21.7525 39.0801 21.7525Z" fill="#AAC8F9"/>
</svg>
